<?xml version="1.0" encoding="UTF-8"?> <!-- Generator: Adobe Illustrator 22.0.1, SVG Export Plug-In . SVG Version: 6.00 Build 0) --> <svg xmlns="http://www.w3.org/2000/svg" xmlns:xlink="http://www.w3.org/1999/xlink" version="1.1" id="Layer_1" x="0px" y="0px" viewBox="0 0 182 56" style="enable-background:new 0 0 182 56;" xml:space="preserve"> <style type="text/css"> .st0{fill:#252525;stroke:#252525;} .st1{fill:#82BEA0;} .st2{fill:#FA6441;} .st3{fill:#FFFFFF;} </style> <title>[EN]-snap-store-black-uneditable</title> <desc>Created with Sketch.</desc> <g id="_x5B_EN_x5D_-snap-store-black-uneditable"> <path id="Rectangle-path" class="st0" d="M2,0h178c1.1,0,2,0.9,2,2v52c0,1.1-0.9,2-2,2H2c-1.1,0-2-0.9-2-2V2C0,0.9,0.9,0,2,0z"></path> <g id="logo" transform="translate(8.000000, 11.000000)"> <path id="body" class="st1" d="M19,17.8V7.3l7.2,3.2L19,17.8z M5.2,31.6L14.1,15l3.9,3.9L5.2,31.6z M0.2,0.2l18.2,6.6v11.6 L0.2,0.2z"></path> <polygon id="head" class="st2" points="29.9,6.8 19.4,6.8 32.9,12.9 "></polygon> </g> <path id="Get-it-from-the" class="st3" d="M56.1,13.9h1.2v3.9c-0.1,0-0.2,0.1-0.4,0.1c-0.2,0-0.4,0.1-0.6,0.1 c-0.2,0-0.5,0.1-0.8,0.1c-0.3,0-0.6,0-0.9,0c-0.6,0-1.1-0.1-1.6-0.3c-0.5-0.2-0.9-0.5-1.2-0.8c-0.3-0.4-0.6-0.8-0.8-1.4 s-0.3-1.2-0.3-1.8c0-0.7,0.1-1.3,0.3-1.9s0.5-1,0.9-1.4c0.4-0.4,0.8-0.6,1.3-0.8c0.5-0.2,1-0.3,1.6-0.3c0.4,0,0.7,0,1,0.1 c0.3,0,0.5,0.1,0.8,0.2c0.2,0.1,0.4,0.1,0.5,0.2c0.1,0.1,0.2,0.1,0.3,0.1l-0.4,1c-0.2-0.2-0.5-0.3-0.9-0.4 c-0.4-0.1-0.8-0.1-1.2-0.1c-0.4,0-0.8,0.1-1.2,0.2c-0.3,0.2-0.6,0.4-0.9,0.7c-0.2,0.3-0.4,0.6-0.6,1.1c-0.1,0.4-0.2,0.9-0.2,1.4 c0,0.5,0.1,0.9,0.2,1.4c0.1,0.4,0.3,0.8,0.5,1.1c0.2,0.3,0.5,0.5,0.9,0.7c0.3,0.2,0.8,0.2,1.2,0.2c0.3,0,0.6,0,0.9-0.1 c0.2,0,0.4-0.1,0.5-0.1V13.9z M58.7,14.9c0-0.6,0.1-1,0.2-1.4c0.2-0.4,0.4-0.8,0.6-1c0.3-0.3,0.6-0.5,0.9-0.6s0.7-0.2,1.1-0.2 c0.8,0,1.5,0.3,1.9,0.8c0.4,0.5,0.7,1.3,0.7,2.4V15c0,0.1,0,0.1,0,0.2h-4.3c0,0.6,0.2,1.1,0.6,1.5c0.3,0.3,0.8,0.5,1.5,0.5 c0.4,0,0.7,0,1-0.1c0.3-0.1,0.5-0.1,0.6-0.2l0.2,0.9c-0.1,0.1-0.4,0.1-0.7,0.2c-0.3,0.1-0.7,0.1-1.2,0.1c-0.5,0-1-0.1-1.4-0.2 c-0.4-0.2-0.7-0.4-1-0.7c-0.3-0.3-0.4-0.6-0.6-1S58.7,15.4,58.7,14.9z M63,14.3c0-0.5-0.1-0.9-0.4-1.2s-0.6-0.5-1.1-0.5 c-0.3,0-0.5,0-0.7,0.1c-0.2,0.1-0.4,0.2-0.5,0.4s-0.2,0.3-0.3,0.6s-0.1,0.4-0.2,0.6H63z M66.8,11.8h2.4v0.9h-2.4v2.9 c0,0.3,0,0.6,0.1,0.8c0,0.2,0.1,0.4,0.2,0.5s0.2,0.2,0.4,0.2c0.1,0,0.3,0.1,0.5,0.1c0.3,0,0.6,0,0.8-0.1s0.3-0.1,0.4-0.2l0.2,0.9 c-0.1,0.1-0.3,0.1-0.6,0.2c-0.3,0.1-0.6,0.1-1,0.1c-0.4,0-0.8-0.1-1.1-0.2c-0.3-0.1-0.5-0.3-0.7-0.5c-0.2-0.2-0.3-0.5-0.4-0.8 c-0.1-0.3-0.1-0.7-0.1-1.1V10l1.1-0.2V11.8z M74.4,18h-1.1v-6.2h1.1V18z M73.9,10.6c-0.2,0-0.4-0.1-0.5-0.2 c-0.1-0.1-0.2-0.3-0.2-0.5c0-0.2,0.1-0.4,0.2-0.5c0.1-0.1,0.3-0.2,0.5-0.2c0.2,0,0.4,0.1,0.5,0.2s0.2,0.3,0.2,0.5 c0,0.2-0.1,0.4-0.2,0.5S74.1,10.6,73.9,10.6z M77.4,11.8h2.4v0.9h-2.4v2.9c0,0.3,0,0.6,0.1,0.8c0,0.2,0.1,0.4,0.2,0.5 s0.2,0.2,0.4,0.2s0.3,0.1,0.5,0.1c0.3,0,0.6,0,0.8-0.1c0.2-0.1,0.3-0.1,0.4-0.2l0.2,0.9c-0.1,0.1-0.3,0.1-0.6,0.2 c-0.3,0.1-0.6,0.1-1,0.1c-0.4,0-0.8-0.1-1-0.2c-0.3-0.1-0.5-0.3-0.7-0.5c-0.2-0.2-0.3-0.5-0.4-0.8c-0.1-0.3-0.1-0.7-0.1-1.1V10 l1.1-0.2V11.8z M86.4,8.7c0.3,0,0.6,0,0.8,0.1c0.2,0,0.4,0.1,0.5,0.1l-0.2,1c-0.1,0-0.2-0.1-0.4-0.1c-0.2,0-0.4-0.1-0.6-0.1 c-0.5,0-0.9,0.1-1.1,0.4s-0.3,0.7-0.3,1.1v0.5h2.4v0.9h-2.4V18H84v-6.8c0-0.8,0.2-1.4,0.6-1.9C84.9,8.9,85.6,8.7,86.4,8.7z M90.9,11.6c0.1,0,0.2,0,0.3,0s0.2,0,0.4,0c0.1,0,0.2,0,0.3,0.1c0.1,0,0.2,0,0.2,0.1l-0.2,1c-0.1,0-0.2-0.1-0.4-0.1 c-0.2,0-0.5-0.1-0.8-0.1c-0.2,0-0.4,0-0.6,0.1c-0.2,0-0.3,0.1-0.4,0.1V18h-1.1v-6c0.3-0.1,0.6-0.2,1-0.3 C90,11.7,90.4,11.6,90.9,11.6z M98.7,14.9c0,0.5-0.1,0.9-0.2,1.3c-0.1,0.4-0.3,0.7-0.6,1c-0.3,0.3-0.6,0.5-0.9,0.7 c-0.4,0.2-0.8,0.2-1.2,0.2s-0.8-0.1-1.2-0.2c-0.4-0.2-0.7-0.4-0.9-0.7c-0.3-0.3-0.5-0.6-0.6-1c-0.1-0.4-0.2-0.8-0.2-1.3 c0-0.5,0.1-0.9,0.2-1.3c0.1-0.4,0.3-0.7,0.6-1c0.3-0.3,0.6-0.5,0.9-0.7c0.4-0.2,0.8-0.2,1.2-0.2s0.8,0.1,1.2,0.2 c0.4,0.2,0.7,0.4,0.9,0.7c0.3,0.3,0.5,0.6,0.6,1C98.7,13.9,98.7,14.4,98.7,14.9z M97.6,14.9c0-0.7-0.2-1.3-0.5-1.7 c-0.3-0.4-0.7-0.6-1.3-0.6c-0.5,0-1,0.2-1.3,0.6c-0.3,0.4-0.5,1-0.5,1.7s0.2,1.3,0.5,1.7c0.3,0.4,0.7,0.6,1.3,0.6 c0.5,0,1-0.2,1.3-0.6C97.4,16.1,97.6,15.6,97.6,14.9z M100.3,11.9c0.3-0.1,0.6-0.1,1-0.2c0.4-0.1,0.9-0.1,1.5-0.1 c0.4,0,0.7,0.1,1,0.2c0.3,0.1,0.5,0.3,0.7,0.5c0.1,0,0.1-0.1,0.3-0.2c0.1-0.1,0.3-0.1,0.4-0.2c0.2-0.1,0.4-0.1,0.6-0.2 c0.2-0.1,0.4-0.1,0.7-0.1c0.5,0,0.9,0.1,1.2,0.2c0.3,0.1,0.5,0.3,0.7,0.6c0.2,0.3,0.3,0.6,0.3,0.9c0.1,0.4,0.1,0.7,0.1,1.2V18h-1.1 v-3.3c0-0.4,0-0.7-0.1-0.9c0-0.3-0.1-0.5-0.2-0.7c-0.1-0.2-0.2-0.3-0.4-0.4c-0.2-0.1-0.4-0.1-0.7-0.1c-0.4,0-0.7,0-0.9,0.1 c-0.2,0.1-0.4,0.2-0.5,0.3c0.1,0.2,0.1,0.4,0.1,0.7c0,0.2,0,0.5,0,0.8V18H104v-3.3c0-0.4,0-0.7-0.1-0.9c0-0.3-0.1-0.5-0.2-0.7 c-0.1-0.2-0.2-0.3-0.4-0.4c-0.2-0.1-0.4-0.1-0.7-0.1c-0.1,0-0.2,0-0.4,0c-0.1,0-0.2,0-0.4,0c-0.1,0-0.2,0-0.3,0s-0.2,0-0.2,0V18 h-1.1V11.9z M114.5,11.8h2.4v0.9h-2.4v2.9c0,0.3,0,0.6,0.1,0.8c0,0.2,0.1,0.4,0.2,0.5s0.2,0.2,0.4,0.2c0.1,0,0.3,0.1,0.5,0.1 c0.3,0,0.6,0,0.8-0.1s0.3-0.1,0.4-0.2l0.2,0.9c-0.1,0.1-0.3,0.1-0.6,0.2c-0.3,0.1-0.6,0.1-1,0.1c-0.4,0-0.8-0.1-1.1-0.2 c-0.3-0.1-0.5-0.3-0.7-0.5c-0.2-0.2-0.3-0.5-0.4-0.8c-0.1-0.3-0.1-0.7-0.1-1.1V10l1.1-0.2V11.8z M118.2,18V8.9l1.1-0.2v3.2 c0.2-0.1,0.4-0.1,0.7-0.2c0.2,0,0.5-0.1,0.7-0.1c0.5,0,0.9,0.1,1.2,0.2c0.3,0.1,0.6,0.3,0.8,0.6c0.2,0.3,0.3,0.6,0.4,0.9 c0.1,0.4,0.1,0.7,0.1,1.2V18h-1.1v-3.3c0-0.4,0-0.7-0.1-1c-0.1-0.3-0.1-0.5-0.3-0.7s-0.3-0.3-0.5-0.4c-0.2-0.1-0.4-0.1-0.7-0.1 c-0.1,0-0.2,0-0.4,0c-0.1,0-0.2,0-0.4,0.1c-0.1,0-0.2,0-0.3,0.1c-0.1,0-0.2,0-0.2,0.1V18H118.2z M124.7,14.9c0-0.6,0.1-1,0.2-1.4 c0.2-0.4,0.4-0.8,0.6-1s0.6-0.5,0.9-0.6s0.7-0.2,1.1-0.2c0.8,0,1.5,0.3,1.9,0.8c0.4,0.5,0.7,1.3,0.7,2.4V15c0,0.1,0,0.1,0,0.2h-4.3 c0,0.6,0.2,1.1,0.6,1.5c0.3,0.3,0.8,0.5,1.5,0.5c0.4,0,0.7,0,1-0.1c0.3-0.1,0.5-0.1,0.6-0.2l0.2,0.9c-0.1,0.1-0.4,0.1-0.7,0.2 c-0.3,0.1-0.7,0.1-1.2,0.1c-0.5,0-1-0.1-1.4-0.2c-0.4-0.2-0.7-0.4-1-0.7c-0.3-0.3-0.4-0.6-0.6-1S124.7,15.4,124.7,14.9z M129,14.3 c0-0.5-0.1-0.9-0.4-1.2c-0.3-0.3-0.6-0.5-1.1-0.5c-0.3,0-0.5,0-0.7,0.1s-0.4,0.2-0.5,0.4s-0.2,0.3-0.3,0.6 c-0.1,0.2-0.1,0.4-0.1,0.6H129z"></path> <path id="Snap-Store" class="st3" d="M55.9,39.3c2.4,0,3.6-0.8,3.6-2.5c0-0.5-0.1-0.9-0.3-1.3c-0.2-0.4-0.5-0.7-0.9-0.9 c-0.4-0.3-0.8-0.5-1.3-0.7c-0.5-0.2-1-0.4-1.5-0.6c-0.6-0.2-1.2-0.4-1.7-0.7c-0.5-0.3-1-0.6-1.4-0.9c-0.4-0.4-0.7-0.8-0.9-1.3 c-0.2-0.5-0.3-1.1-0.3-1.8c0-1.5,0.5-2.6,1.5-3.4c1-0.8,2.4-1.2,4.1-1.2c1,0,1.9,0.1,2.7,0.3c0.8,0.2,1.4,0.5,1.8,0.7l-0.7,1.9 c-0.3-0.2-0.8-0.4-1.5-0.6c-0.7-0.2-1.4-0.3-2.3-0.3c-0.4,0-0.9,0-1.2,0.1c-0.4,0.1-0.7,0.2-1,0.4S54,27,53.8,27.3 c-0.2,0.3-0.3,0.6-0.3,1c0,0.4,0.1,0.8,0.3,1.1c0.2,0.3,0.4,0.6,0.7,0.8c0.3,0.2,0.7,0.4,1.1,0.6c0.4,0.2,0.9,0.4,1.4,0.6 c0.7,0.3,1.4,0.6,2,0.9s1.1,0.6,1.6,1c0.4,0.4,0.8,0.9,1,1.4c0.2,0.6,0.4,1.2,0.4,2c0,1.5-0.5,2.6-1.6,3.4 c-1.1,0.8-2.6,1.2-4.5,1.2c-0.7,0-1.3,0-1.8-0.1c-0.6-0.1-1-0.2-1.5-0.3c-0.4-0.1-0.8-0.2-1.1-0.4c-0.3-0.1-0.6-0.3-0.7-0.3 l0.7-1.9c0.4,0.2,0.9,0.4,1.7,0.7S54.8,39.3,55.9,39.3z M64.7,28.9c0.5-0.1,1.2-0.3,2-0.4c0.8-0.1,1.8-0.2,2.9-0.2 c1,0,1.8,0.1,2.5,0.4c0.7,0.3,1.2,0.7,1.6,1.2c0.4,0.5,0.7,1.1,0.8,1.8c0.2,0.7,0.2,1.5,0.2,2.3v7h-2.2v-6.5c0-0.8-0.1-1.4-0.2-2 c-0.1-0.5-0.3-1-0.5-1.3c-0.2-0.3-0.6-0.6-1-0.7s-0.9-0.2-1.5-0.2c-0.2,0-0.5,0-0.7,0c-0.3,0-0.5,0-0.7,0.1s-0.4,0.1-0.6,0.1 c-0.2,0-0.3,0.1-0.4,0.1V41h-2.2V28.9z M82.7,39.4c0.5,0,1,0,1.4,0c0.4,0,0.7-0.1,1-0.1v-3.7c-0.2-0.1-0.4-0.1-0.8-0.2 s-0.8-0.1-1.3-0.1c-0.3,0-0.7,0-1.1,0.1c-0.4,0-0.7,0.1-1,0.3c-0.3,0.2-0.6,0.4-0.8,0.6c-0.2,0.3-0.3,0.6-0.3,1 c0,0.8,0.3,1.4,0.8,1.7S81.8,39.4,82.7,39.4z M82.5,28.2c0.9,0,1.7,0.1,2.3,0.3c0.6,0.2,1.1,0.6,1.5,1c0.4,0.4,0.6,0.9,0.8,1.5 s0.2,1.2,0.2,1.9v7.8c-0.2,0-0.5,0.1-0.8,0.1s-0.7,0.1-1.2,0.2c-0.4,0-0.9,0.1-1.4,0.1c-0.5,0-1,0.1-1.5,0.1 c-0.7,0-1.4-0.1-1.9-0.2s-1.1-0.4-1.5-0.7c-0.4-0.3-0.8-0.7-1-1.2c-0.2-0.5-0.4-1.1-0.4-1.8c0-0.7,0.1-1.3,0.4-1.8 c0.3-0.5,0.7-0.9,1.1-1.2s1-0.5,1.7-0.7c0.6-0.1,1.3-0.2,2-0.2c0.2,0,0.5,0,0.7,0c0.2,0,0.5,0.1,0.7,0.1c0.2,0,0.4,0.1,0.6,0.1 c0.2,0,0.3,0.1,0.3,0.1v-0.6c0-0.4,0-0.7-0.1-1.1c-0.1-0.4-0.2-0.7-0.4-1s-0.5-0.5-0.9-0.7c-0.4-0.2-0.8-0.3-1.4-0.3 c-0.7,0-1.4,0.1-1.9,0.2s-1,0.2-1.2,0.3l-0.3-1.8c0.3-0.1,0.8-0.3,1.4-0.4C81,28.3,81.7,28.2,82.5,28.2z M99.7,34.8 c0-1.5-0.4-2.6-1.1-3.4c-0.7-0.8-1.7-1.2-2.9-1.2c-0.7,0-1.2,0-1.6,0.1s-0.7,0.1-0.9,0.2v7.9c0.3,0.2,0.7,0.4,1.2,0.6 s1.1,0.3,1.7,0.3c0.6,0,1.2-0.1,1.6-0.3s0.8-0.6,1.1-1c0.3-0.4,0.5-0.9,0.6-1.4C99.6,36,99.7,35.4,99.7,34.8z M102,34.8 c0,0.9-0.1,1.8-0.4,2.6c-0.2,0.8-0.6,1.5-1.1,2.1c-0.5,0.6-1.1,1-1.8,1.3c-0.7,0.3-1.5,0.5-2.4,0.5c-0.7,0-1.4-0.1-1.9-0.3 s-1-0.4-1.2-0.6v5H91V28.9c0.5-0.1,1.2-0.3,2-0.4c0.8-0.2,1.7-0.2,2.7-0.2c1,0,1.8,0.2,2.6,0.5c0.8,0.3,1.4,0.7,2,1.3 c0.5,0.6,1,1.2,1.3,2.1C101.8,32.9,102,33.8,102,34.8z M114.7,39.3c2.4,0,3.6-0.8,3.6-2.5c0-0.5-0.1-0.9-0.3-1.3 c-0.2-0.4-0.5-0.7-0.9-0.9s-0.8-0.5-1.3-0.7c-0.5-0.2-1-0.4-1.5-0.6c-0.6-0.2-1.2-0.4-1.7-0.7c-0.5-0.3-1-0.6-1.4-0.9 c-0.4-0.4-0.7-0.8-0.9-1.3s-0.3-1.1-0.3-1.8c0-1.5,0.5-2.6,1.5-3.4s2.4-1.2,4.1-1.2c1,0,1.9,0.1,2.7,0.3c0.8,0.2,1.4,0.5,1.8,0.7 l-0.7,1.9c-0.3-0.2-0.8-0.4-1.5-0.6c-0.7-0.2-1.4-0.3-2.3-0.3c-0.4,0-0.9,0-1.2,0.1c-0.4,0.1-0.7,0.2-1,0.4s-0.5,0.4-0.7,0.7 s-0.3,0.6-0.3,1c0,0.4,0.1,0.8,0.3,1.1c0.2,0.3,0.4,0.6,0.7,0.8c0.3,0.2,0.7,0.4,1.1,0.6c0.4,0.2,0.9,0.4,1.4,0.6 c0.7,0.3,1.4,0.6,2,0.9c0.6,0.3,1.1,0.6,1.6,1c0.4,0.4,0.8,0.9,1,1.4s0.4,1.2,0.4,2c0,1.5-0.5,2.6-1.6,3.4 c-1.1,0.8-2.6,1.2-4.5,1.2c-0.7,0-1.3,0-1.8-0.1c-0.6-0.1-1-0.2-1.5-0.3c-0.4-0.1-0.8-0.2-1.1-0.4c-0.3-0.1-0.6-0.3-0.7-0.3 l0.7-1.9c0.4,0.2,0.9,0.4,1.7,0.7C112.7,39.2,113.6,39.3,114.7,39.3z M125.5,28.5h4.7v1.9h-4.7v5.8c0,0.6,0,1.1,0.1,1.5 s0.2,0.7,0.4,1c0.2,0.2,0.4,0.4,0.7,0.5s0.6,0.1,1,0.1c0.7,0,1.2-0.1,1.6-0.2s0.7-0.3,0.9-0.3l0.4,1.8c-0.2,0.1-0.6,0.3-1.2,0.4 c-0.6,0.2-1.2,0.3-1.9,0.3c-0.8,0-1.5-0.1-2.1-0.3c-0.6-0.2-1-0.5-1.3-1c-0.3-0.4-0.6-1-0.7-1.6c-0.1-0.6-0.2-1.4-0.2-2.2V25 l2.2-0.4V28.5z M143.8,34.8c0,1-0.1,1.9-0.4,2.7c-0.3,0.8-0.7,1.5-1.2,2.1c-0.5,0.6-1.1,1-1.9,1.3c-0.7,0.3-1.5,0.5-2.4,0.5 s-1.6-0.2-2.4-0.5c-0.7-0.3-1.3-0.8-1.9-1.3c-0.5-0.6-0.9-1.3-1.2-2.1c-0.3-0.8-0.4-1.7-0.4-2.7c0-1,0.1-1.9,0.4-2.7 c0.3-0.8,0.7-1.5,1.2-2.1c0.5-0.6,1.1-1,1.9-1.3c0.7-0.3,1.5-0.5,2.4-0.5s1.6,0.2,2.4,0.5c0.7,0.3,1.3,0.8,1.9,1.3 c0.5,0.6,0.9,1.3,1.2,2.1C143.6,32.9,143.8,33.8,143.8,34.8z M141.4,34.8c0-1.4-0.3-2.5-0.9-3.3c-0.6-0.8-1.5-1.2-2.6-1.2 c-1.1,0-1.9,0.4-2.6,1.2c-0.6,0.8-0.9,1.9-0.9,3.3c0,1.4,0.3,2.5,0.9,3.3c0.6,0.8,1.5,1.2,2.6,1.2c1.1,0,1.9-0.4,2.6-1.2 C141.1,37.3,141.4,36.2,141.4,34.8z M151.5,28.3c0.2,0,0.4,0,0.7,0s0.5,0.1,0.7,0.1c0.2,0,0.5,0.1,0.7,0.1c0.2,0,0.3,0.1,0.4,0.1 l-0.4,1.9c-0.2-0.1-0.5-0.1-0.9-0.2c-0.4-0.1-0.9-0.1-1.6-0.1c-0.4,0-0.8,0-1.2,0.1c-0.4,0.1-0.7,0.1-0.8,0.2V41h-2.2V29 c0.5-0.2,1.2-0.4,2-0.5C149.7,28.3,150.5,28.3,151.5,28.3z M155.5,34.8c0-1.1,0.2-2.1,0.5-2.9c0.3-0.8,0.7-1.5,1.3-2.1 c0.5-0.5,1.1-1,1.8-1.2s1.4-0.4,2.1-0.4c1.7,0,3,0.5,3.9,1.6c0.9,1,1.3,2.6,1.3,4.8v0.4c0,0.2,0,0.3,0,0.4h-8.5 c0.1,1.3,0.5,2.3,1.1,3s1.7,1,3.1,1c0.8,0,1.4-0.1,2-0.2c0.5-0.1,0.9-0.3,1.2-0.4l0.3,1.9c-0.3,0.1-0.7,0.3-1.4,0.5 s-1.5,0.2-2.3,0.2c-1.1,0-2-0.2-2.8-0.5c-0.8-0.3-1.4-0.8-2-1.4c-0.5-0.6-0.9-1.3-1.1-2.1S155.5,35.7,155.5,34.8z M164,33.6 c0-1-0.2-1.8-0.8-2.5c-0.5-0.6-1.2-1-2.1-1c-0.5,0-1,0.1-1.4,0.3c-0.4,0.2-0.7,0.5-1,0.8c-0.3,0.3-0.5,0.7-0.6,1.1 c-0.2,0.4-0.3,0.8-0.3,1.3H164z"></path> </g> </svg> 