<?xml version="1.0" encoding="UTF-8"?><svg id="Layer_1" xmlns="http://www.w3.org/2000/svg" viewBox="0 0 500 500"><defs><style>.cls-1{fill:#003dff;}.cls-2{fill:#fff;}</style></defs><rect class="cls-2" x="0" y="0" width="500" height="500" rx="250" ry="250"/><path class="cls-1" d="M239.73,122.82c-69.46,0-126.08,56-127.08,125.23-1.02,70.3,56.02,128.56,126.33,128.96,21.72,.13,42.63-5.18,61.2-15.28,1.81-.98,2.09-3.47,.55-4.84l-11.89-10.54c-2.42-2.14-5.86-2.75-8.83-1.48-12.96,5.52-27.05,8.33-41.57,8.16-56.81-.7-102.72-47.97-101.81-104.78,.89-56.09,46.8-101.45,103.1-101.45h103.12v183.28l-58.5-51.98c-1.89-1.68-4.79-1.35-6.32,.67-9.39,12.43-24.69,20.17-41.68,18.99-23.57-1.63-42.67-20.6-44.43-44.16-2.11-28.1,20.16-51.64,47.82-51.64,25.02,0,45.62,19.26,47.77,43.73,.19,2.18,1.17,4.21,2.81,5.66l15.24,13.51c1.73,1.53,4.47,.59,4.9-1.68,1.1-5.87,1.48-12,1.05-18.27-2.45-35.78-31.44-64.57-67.24-66.78-41.04-2.53-75.36,29.58-76.45,69.83-1.06,39.22,31.07,73.03,70.3,73.9,16.38,.36,31.55-4.79,43.82-13.71l76.44,67.76c3.28,2.9,8.45,.58,8.45-3.8V127.64c0-2.66-2.16-4.82-4.82-4.82h-122.27Z"/></svg>